<svg width="338" height="73" xmlns="http://www.w3.org/2000/svg" xmlns:xlink="http://www.w3.org/1999/xlink" xml:space="preserve" overflow="hidden"><defs><clipPath id="clip0"><rect x="776" y="70" width="338" height="73"/></clipPath></defs><g clip-path="url(#clip0)" transform="translate(-776 -70)"><path d="M0 0C4.3081 0 7.98231 2.34342 11.017 7.03585 14.055 11.7251 15.5731 16.9183 15.5731 22.6082 15.5731 25.9866 14.9313 28.5126 13.6459 30.1894 12.3614 31.8655 10.4342 32.7043 7.86351 32.7043 3.7372 32.7043 0.149105 30.3784-2.90077 25.7266-5.95065 21.0757-7.47519 15.8777-7.47519 10.1336-7.47519 6.80861-6.83253 4.28737-5.54799 2.57306-4.26345 0.856358-2.41279 0 0 0M-1.71192-5.76248C-6.41152-5.76248-9.90872-4.3998-12.2059-1.67125-14.5023 1.05729-15.6513 4.44605-15.6513 8.49979-15.6513 13.5128-14.4512 18.4755-12.0496 23.3856-9.65038 28.2949-6.63797 32.0353-3.01719 34.6076 0.603597 37.1806 4.84074 38.4668 9.69423 38.4668 14.574 38.4668 18.1366 37.0953 20.382 34.3556 22.6265 31.6135 23.7492 28.2431 23.7492 24.242 23.7492 19.2553 22.5619 14.3245 20.1866 9.45423 17.8121 4.58319 14.834 0.828451 11.2507-1.8084 7.66975-4.44445 3.34809-5.76248-1.71192-5.76248" fill="#DE7D47" transform="matrix(1.00159 0 0 -1 792.281 122.833)"/><path d="M0 0-1.96069-9.85051C-0.0797354-10.8113 1.89212-11.2905 3.95408-11.2905 6.8413-11.2905 9.79868-10.0698 12.8278-7.62749 15.8562-5.1844 18.3623-1.62421 20.3485 3.05387 22.3323 7.73274 23.3242 11.9691 23.3242 15.7629 23.3242 16.9836 23.0547 17.9899 22.5133 18.7841 21.9735 19.5766 21.1873 19.9721 20.1579 19.9721 16.3218 19.9721 9.60254 13.3158 0 0M-13.9122-31.2244-2.46063 26.4355 5.23862 26.4355 1.81876 9.15044C5.04725 14.6633 8.6194 19.0855 12.5328 22.4144 16.447 25.7434 20.0957 27.4098 23.4797 27.4098 25.9076 27.4098 27.8524 26.3757 29.3123 24.3105 30.7715 22.2454 31.5003 19.8629 31.5003 17.1599 31.5003 12.0432 30.0738 6.66429 27.2177 1.02779 24.3624-4.6095 20.8341-8.99336 16.6352-12.1238 12.4355-15.2542 7.95759-16.8194 3.20377-16.8194 1.42009-16.8194-0.69928-16.4949-3.15354-15.8458L-6.21378-31.2244Z" fill="#DE7D47" transform="matrix(1.00159 0 0 -1 829.54 111.776)"/><path d="M0 0C4.64539 0.440937 8.20717 1.19284 10.6861 2.25811 13.1659 3.32178 15.125 4.74186 16.565 6.52076 18.0059 8.29886 18.7259 10.0044 18.7259 11.6406 18.7259 12.6779 18.3049 13.6451 17.4605 14.5405 16.6169 15.436 15.5333 15.8833 14.2096 15.8833 12.4196 15.8833 10.6287 15.3132 8.83787 14.1706 7.3835 13.2624 6.04713 12.068 4.82798 10.5889 3.84006 9.42074 2.97174 8.14178 2.21824 6.75439 1.46554 5.3654 0.725592 3.11446 0 0M24.4501-17.1312C17.7539-20.6108 11.4452-22.3482 5.52885-22.3482 1.08919-22.3482-2.34263-21.0494-4.76897-18.4524-7.19612-15.8546-8.40969-12.3223-8.40969-7.85314-8.40969-2.99566-7.2934 1.70873-5.0624 6.25285-2.82981 10.8002 0.200933 14.5398 4.02983 17.4764 7.85713 20.4123 12.0161 21.8794 16.5076 21.8794 19.6213 21.8794 22.0102 21.1395 23.6711 19.6572 25.3327 18.1757 26.1636 16.0962 26.1636 13.4195 26.1636 10.2213 25.1446 7.27905 23.1065 4.58798 21.0693 1.8985 18.0314-0.381933 13.9968-2.25412 9.95975-4.12631 5.0616-5.29603-0.700874-5.76328-0.700874-9.3713 0.0829248-12.0185 1.65371-13.7049 3.2237-15.3937 5.26812-16.2357 7.78696-16.2357 9.78433-16.2357 12.465-15.7111 15.8267-14.6602 19.1867-13.6084 22.5548-11.9675 25.93-9.7341Z" fill="#DE7D47" transform="matrix(1.00159 0 0 -1 873.535 106.247)"/><path d="M0 0 8.39853 42.2813 16.097 42.2813 12.6739 24.9963C15.7334 30.1974 19.1134 34.5398 22.8083 38.0258 26.5056 41.5126 30.2604 43.2557 34.0741 43.2557 36.1225 43.2557 37.7962 42.6234 39.0935 41.3604 40.3908 40.0973 41.039 38.0481 41.039 35.2104 41.039 33.4131 40.8971 31.761 40.6108 30.25L34.602 0 26.9019 0 32.9562 30.5179C33.087 31.1941 33.1524 31.895 33.1524 32.6237 33.1524 33.5056 32.9188 34.22 32.4515 34.767 31.9843 35.3116 31.4006 35.5843 30.6997 35.5843 28.6242 35.5843 26.0432 33.9474 22.9566 30.671 19.8685 27.3931 15.7693 22.1274 10.6598 14.8722L7.69925 0Z" fill="#DE7D47" transform="matrix(1.00159 0 0 -1 903.857 127.622)"/><path d="M0 0 0 57.6216 36.9095 57.6216 36.9095 49.6791 11.9922 49.6791 11.9922 33.6388 32.5879 33.6388 32.5879 25.6963 11.9922 25.6963 11.9922 8.17607 38.7387 8.17607 38.7387 0Z" fill="#123F6D" transform="matrix(1.00159 0 0 -1 957.823 127.622)"/><path d="M0 0 0 57.6216 11.9914 57.6216 11.9914 34.2216 35.8187 34.2216 35.8187 57.6216 47.8101 57.6216 47.8101 0 35.8187 0 35.8187 26.2792 11.9914 26.2792 11.9914 0Z" fill="#123F6D" transform="matrix(1.00159 0 0 -1 1005.79 127.622)"/><path d="M0 0 2.75964 0C7.70882 0 11.1279 1.07723 13.0152 3.23247 14.9025 5.38533 15.8466 7.82444 15.8466 10.5498 15.8466 12.9124 15.0788 14.7877 13.5431 16.1767 12.0074 17.5641 8.88492 18.2586 4.17574 18.2586L0 18.2586ZM-11.2905-31.458-11.2905 26.1636 10.2787 26.1636C14.6905 26.1636 18.0513 25.6118 20.3628 24.5083 22.672 23.4055 24.4955 21.7311 25.8319 19.4857 27.1682 17.2412 27.838 14.7032 27.838 11.8758 27.838 8.50059 26.8645 5.31436 24.9173 2.31631 22.971-0.68094 20.2193-2.97254 16.6639-4.55528L35.5261-31.458 20.9218-31.458 6.59252-7.90258 0-7.90258 0-31.458Z" fill="#123F6D" transform="matrix(1.00159 0 0 -1 1077.81 96.1637)"/></g></svg>